<?xml version="1.0" standalone="no"?>
<!DOCTYPE svg PUBLIC "-//W3C//DTD SVG 20010904//EN"
 "http://www.w3.org/TR/2001/REC-SVG-20010904/DTD/svg10.dtd">
<svg version="1.0" xmlns="http://www.w3.org/2000/svg"
 width="1024.000000pt" height="1024.000000pt" viewBox="0 0 1024.000000 1024.000000"
 preserveAspectRatio="xMidYMid meet"
 className="fill-black dark:fill-white"
 >
<path d="M12 2L15.09 8.26L22 9.27L17 14.14L18.18 21.02L12 17.77L5.82 21.02L7 14.14L2 9.27L8.91 8.26L12 2Z" />
<g transform="translate(0.000000,1024.000000) scale(0.100000,-0.100000)"
fill="#000000" stroke="none">
<path d="M4815 8300 c-426 -44 -853 -170 -1210 -359 -480 -254 -898 -632
-1200 -1086 -138 -208 -228 -377 -323 -607 l-12 -28 -573 0 -574 0 -15 -37
c-17 -42 -234 -510 -384 -829 -54 -114 -94 -213 -94 -230 0 -17 32 -100 71
-185 122 -268 265 -578 343 -749 l75 -165 576 -5 576 -5 44 -108 c159 -391
472 -837 786 -1122 417 -379 864 -622 1387 -755 307 -78 505 -103 837 -103
391 0 692 49 1055 171 663 224 1251 675 1649 1262 125 184 267 444 330 603
l23 57 575 0 574 0 15 38 c9 20 46 102 84 182 37 80 113 242 168 360 55 118
122 262 149 320 27 58 59 128 72 155 l22 50 -142 290 c-78 160 -195 400 -260
535 -66 135 -122 251 -127 258 -5 10 -120 13 -566 15 -485 2 -560 4 -567 17
-5 8 -33 71 -64 140 -342 769 -992 1390 -1780 1703 -212 84 -538 168 -786 202
-136 19 -602 28 -734 15z m521 -250 c373 -29 690 -111 1044 -269 525 -235
1007 -664 1310 -1166 80 -133 169 -301 218 -412 l32 -73 644 0 c503 0 646 -3
654 -12 5 -7 38 -74 72 -148 35 -74 102 -214 150 -310 47 -96 124 -255 170
-354 81 -174 83 -180 70 -215 -14 -42 -69 -162 -286 -628 l-159 -341 -260 5
c-143 3 -439 2 -659 -2 -395 -7 -399 -8 -404 -29 -3 -11 -43 -96 -89 -188
-192 -382 -402 -663 -700 -935 -238 -217 -412 -337 -708 -485 -525 -264 -1160
-362 -1763 -272 -679 100 -1318 442 -1766 942 -246 274 -396 505 -530 812 -33
74 -63 140 -68 146 -6 9 -184 12 -660 11 -553 0 -653 2 -660 14 -30 51 -448
967 -448 982 0 12 60 146 165 367 131 277 272 583 280 608 l6 22 657 0 658 0
28 68 c100 234 269 519 432 729 146 188 411 439 622 590 555 397 1269 596
1948 543z"/>
<path d="M4922 7939 c-244 -17 -545 -81 -797 -170 -256 -91 -584 -279 -825
-472 -134 -108 -339 -319 -460 -476 -153 -197 -323 -480 -389 -649 l-21 -52
73 0 72 0 53 109 c337 690 924 1211 1627 1443 267 88 493 127 790 135 388 11
646 -30 1000 -158 689 -250 1253 -756 1565 -1406 l59 -123 70 0 c38 0 72 4 75
9 8 12 -136 295 -224 439 -104 171 -258 362 -424 527 -243 243 -458 396 -776
554 -359 179 -697 267 -1110 291 -192 11 -182 11 -358 -1z"/>
<path d="M7791 5678 c-25 -58 -193 -525 -222 -615 -13 -40 -25 -73 -29 -73 -3
0 -50 116 -104 258 -55 141 -117 303 -139 360 l-39 102 -154 0 c-126 0 -154
-3 -154 -14 0 -8 14 -45 31 -83 17 -37 57 -133 89 -213 32 -80 97 -237 145
-350 47 -113 105 -251 127 -308 l42 -103 139 3 140 3 57 135 c32 74 86 200
120 280 34 80 90 213 125 295 35 83 84 198 108 258 l46 107 -155 0 -155 0 -18
-42z"/>
<path d="M8230 5175 l0 -545 430 0 430 0 0 120 0 120 -290 0 -290 0 0 95 0 95
243 2 242 3 3 118 3 117 -246 0 -245 0 0 90 0 90 290 0 290 0 0 120 0 120
-430 0 -430 0 0 -545z"/>
<path d="M978 5703 c-3 -4 -4 -249 -4 -543 l1 -535 135 0 135 0 0 282 c-1 156
2 280 7 275 4 -4 38 -63 75 -132 38 -69 93 -169 123 -222 l55 -98 85 0 85 0
42 83 c80 155 204 382 215 392 7 7 9 -78 5 -287 l-5 -298 134 0 134 0 0 545 0
546 -132 -3 -132 -3 -94 -170 c-51 -93 -127 -232 -169 -307 -41 -76 -78 -138
-81 -138 -4 0 -51 80 -105 178 -53 97 -130 236 -171 307 l-73 130 -131 3 c-72
1 -132 -1 -134 -5z"/>
<path d="M2423 5702 l-23 -3 0 -540 0 -540 138 3 137 3 0 540 0 540 -115 0
c-63 0 -125 -1 -137 -3z"/>
<path d="M2914 5702 c-11 -7 -24 -814 -16 -1000 l4 -83 131 3 132 3 5 298 5
298 85 -104 c47 -57 159 -192 249 -300 l165 -197 97 0 c69 0 100 4 108 14 8 9
10 160 9 542 l-3 529 -135 0 -135 0 -3 -287 c-1 -179 -6 -288 -12 -288 -5 0
-47 46 -91 103 -233 291 -381 465 -401 471 -32 8 -181 7 -194 -2z"/>
<path d="M4107 5703 c-10 -10 -8 -1061 2 -1067 5 -3 136 -6 292 -6 315 -1 379
8 514 69 108 49 220 170 261 281 45 126 37 294 -20 416 -56 119 -149 202 -287
257 -129 52 -172 57 -475 57 -154 0 -284 -3 -287 -7z m597 -240 c47 -13 72
-28 112 -67 68 -66 89 -131 82 -255 -8 -133 -45 -198 -138 -246 -66 -33 -136
-45 -265 -45 l-115 0 0 315 0 315 132 0 c93 0 149 -5 192 -17z"/>
<path d="M6546 5694 c-3 -9 -6 -249 -6 -535 l0 -519 145 0 145 0 0 535 0 535
-139 0 c-117 0 -140 -2 -145 -16z"/>
<path d="M5347 5693 c-2 -4 -3 -238 -2 -520 1 -400 5 -515 15 -528 16 -19 229
-22 248 -3 8 8 12 68 12 204 0 166 2 193 16 198 20 8 388 8 408 0 14 -5 16
-32 16 -194 0 -154 3 -191 15 -203 11 -12 41 -16 122 -16 60 0 114 3 121 7 10
7 12 120 10 533 l-3 524 -132 3 -133 3 0 -204 0 -204 -146 -7 c-80 -4 -179 -4
-219 0 l-75 7 -2 201 -3 201 -132 3 c-72 1 -133 -1 -136 -5z"/>
<path d="M4873 4153 c-7 -2 -13 -15 -13 -28 0 -29 16 -41 64 -51 42 -7 86 -43
86 -68 0 -8 -12 -18 -27 -24 -72 -26 -163 -120 -189 -195 -10 -29 -16 -33 -63
-38 -33 -5 -64 -16 -86 -33 -59 -45 -65 -68 -65 -229 0 -133 2 -147 23 -177
27 -42 72 -68 129 -78 l43 -8 6 -54 c12 -111 94 -221 204 -276 116 -56 247
-32 357 65 59 52 107 147 115 224 6 57 6 57 39 57 63 0 120 35 150 92 18 34
29 186 20 262 -12 95 -83 156 -181 156 -26 0 -32 6 -49 48 -24 57 -92 132
-152 167 -24 14 -44 30 -44 36 0 24 59 69 99 75 32 5 43 12 47 30 9 34 -12 54
-55 54 -73 -1 -161 -63 -177 -126 -10 -38 -41 -31 -59 13 -21 50 -42 72 -90
94 -38 17 -105 24 -132 12z m379 -276 c42 -24 88 -75 88 -97 0 -6 -74 -10
-220 -10 -145 0 -220 4 -220 10 0 36 83 106 142 121 62 15 163 4 210 -24z
m113 -253 c-2 -25 -5 -47 -7 -49 -2 -2 -109 -6 -238 -7 l-235 -3 -3 53 -3 52
244 0 244 0 -2 -46z m-585 -133 c0 -154 -1 -160 -21 -166 -14 -5 -30 0 -48 13
-25 19 -26 22 -29 148 -3 122 -2 130 19 147 12 9 34 17 50 17 l29 0 0 -159z
m770 139 c18 -18 20 -33 20 -139 0 -113 -1 -121 -22 -135 -12 -9 -37 -16 -55
-16 l-33 0 0 155 0 155 35 0 c22 0 43 -8 55 -20z m-190 -210 l0 -50 -240 0
-240 0 0 50 0 50 240 0 240 0 0 -50z m0 -200 l0 -50 -240 0 -240 0 0 50 0 50
240 0 240 0 0 -50z m-60 -159 c0 -30 -123 -100 -176 -101 -51 0 -121 29 -166
70 l-43 39 193 1 c109 0 192 -4 192 -9z"/>
<path d="M2430 4121 c0 -13 61 -155 104 -239 247 -489 633 -903 1116 -1192
277 -167 640 -301 962 -355 667 -112 1333 0 1911 321 481 267 889 682 1162
1182 71 130 137 277 128 286 -8 7 -79 6 -116 -3 -23 -5 -36 -25 -91 -137 -145
-298 -335 -557 -589 -799 -416 -400 -928 -647 -1522 -736 -61 -10 -188 -14
-390 -14 -295 0 -303 1 -470 32 -302 57 -500 124 -757 255 -187 95 -382 222
-518 336 -210 176 -446 445 -580 661 -49 79 -178 327 -200 385 -9 25 -13 26
-80 26 -38 0 -70 -4 -70 -9z"/>
</g>
</svg>
